<?xml version="1.0" encoding="UTF-8" standalone="no"?>
<!DOCTYPE svg PUBLIC "-//W3C//DTD SVG 1.1//EN" "http://www.w3.org/Graphics/SVG/1.1/DTD/svg11.dtd">
<svg width="100%" height="100%" viewBox="0 0 24 24" version="1.1" xmlns="http://www.w3.org/2000/svg" xmlns:xlink="http://www.w3.org/1999/xlink" xml:space="preserve" xmlns:serif="http://www.serif.com/" style="fill-rule:evenodd;clip-rule:evenodd;stroke-linejoin:round;stroke-miterlimit:2;">
    <g transform="matrix(1.393764,0,0,1.393764,-5.505391,-6.101076)">
        <g transform="matrix(9,0,0,9,15.23593,19.793814)">
        </g>
        <text x="9.835px" y="19.794px" style="font-family:'CourierNewPS-BoldMT', 'Courier New', monospace;font-weight:700;font-size:9px;">M</text>
    </g>
    <g transform="matrix(1.072014,0,0,1.072014,-0.864173,0.743848)">
        <path d="M12,1C7,1 3,5 3,10L3,17C3,18.646 4.354,20 6,20L8,20L8,12L5,12L5,10C5,6.16 8.16,3 12,3C15.84,3 19,6.16 19,10L19,12L16,12L16,20L18,20C19.646,20 21,18.646 21,17L21,10C21,5 16.97,1 12,1Z" style="fill-rule:nonzero;"/>
    </g>
</svg>
